<svg width="419" height="84" viewBox="0 0 419 84" fill="none" xmlns="http://www.w3.org/2000/svg">
<path d="M140.96 46.76L123.96 39.2V35.68L140.96 28.12V33.16L130.64 37.4L140.96 41.72V46.76ZM145.29 58.24L159.21 17.84H164.69L150.77 58.24H145.29ZM177.77 51.4C176.117 51.4 174.797 51.16 173.81 50.68C172.824 50.1733 172.077 49.5467 171.57 48.8C171.064 48.0267 170.73 47.2133 170.57 46.36C170.41 45.5067 170.33 44.72 170.33 44V34.64H166.73V29.8H170.33V24.56H176.41V29.8H180.93V34.64H176.41V43.84C176.41 44.72 176.637 45.4 177.09 45.88C177.57 46.36 178.357 46.6 179.45 46.6C179.93 46.6 180.37 46.56 180.77 46.48C181.17 46.4 181.37 46.36 181.37 46.36V51.04C181.37 51.04 181.01 51.0933 180.29 51.2C179.57 51.3333 178.73 51.4 177.77 51.4ZM189.029 26.92C187.963 26.92 187.096 26.5867 186.429 25.92C185.763 25.2267 185.429 24.4133 185.429 23.48C185.429 22.4933 185.763 21.6667 186.429 21C187.096 20.3067 187.963 19.96 189.029 19.96C190.043 19.96 190.896 20.3067 191.589 21C192.283 21.6667 192.629 22.4933 192.629 23.48C192.629 24.4133 192.283 25.2267 191.589 25.92C190.896 26.5867 190.043 26.92 189.029 26.92ZM185.989 51V29.8H192.069V51H185.989ZM207.825 51.4C205.959 51.4 204.345 51.0933 202.985 50.48C201.625 49.84 200.505 49 199.625 47.96C198.745 46.8933 198.079 45.7067 197.625 44.4C197.199 43.0933 196.985 41.7467 196.985 40.36C196.985 39.0267 197.185 37.72 197.585 36.44C198.012 35.1333 198.652 33.9467 199.505 32.88C200.385 31.8133 201.492 30.9733 202.825 30.36C204.185 29.72 205.785 29.4 207.625 29.4C209.572 29.4 211.292 29.8267 212.785 30.68C214.305 31.5333 215.492 32.8 216.345 34.48C217.199 36.1333 217.625 38.1467 217.625 40.52V42H203.105C203.185 43.28 203.625 44.3867 204.425 45.32C205.252 46.2533 206.385 46.72 207.825 46.72C208.652 46.72 209.319 46.6 209.825 46.36C210.359 46.0933 210.772 45.8 211.065 45.48C211.359 45.1333 211.559 44.8267 211.665 44.56C211.772 44.2933 211.825 44.16 211.825 44.16H217.425C217.425 44.16 217.359 44.4133 217.225 44.92C217.119 45.4 216.879 46 216.505 46.72C216.132 47.44 215.585 48.16 214.865 48.88C214.172 49.6 213.252 50.2 212.105 50.68C210.959 51.16 209.532 51.4 207.825 51.4ZM203.105 38.32H211.785C211.705 36.8533 211.265 35.76 210.465 35.04C209.665 34.32 208.679 33.96 207.505 33.96C206.332 33.96 205.332 34.3467 204.505 35.12C203.679 35.8667 203.212 36.9333 203.105 38.32ZM221.758 51V29.8H227.838V32.84H228.038C228.278 32.4133 228.624 31.9333 229.078 31.4C229.558 30.8667 230.184 30.4 230.958 30C231.758 29.6 232.771 29.4 233.998 29.4C235.651 29.4 236.998 29.7867 238.038 30.56C239.078 31.3067 239.838 32.28 240.318 33.48C240.798 34.6533 241.038 35.8933 241.038 37.2V51H234.958V38.24C234.958 37.2267 234.678 36.3333 234.118 35.56C233.584 34.7867 232.718 34.4 231.518 34.4C230.611 34.4 229.891 34.6133 229.358 35.04C228.824 35.4667 228.438 36.0133 228.198 36.68C227.958 37.3467 227.838 38.0533 227.838 38.8V51H221.758ZM254.469 51.4C252.896 51.4 251.523 51.0933 250.349 50.48C249.203 49.84 248.243 49 247.469 47.96C246.696 46.8933 246.109 45.7067 245.709 44.4C245.336 43.0933 245.149 41.76 245.149 40.4C245.149 39.04 245.336 37.7067 245.709 36.4C246.109 35.0933 246.696 33.92 247.469 32.88C248.243 31.8133 249.203 30.9733 250.349 30.36C251.523 29.72 252.896 29.4 254.469 29.4C255.829 29.4 256.949 29.6267 257.829 30.08C258.709 30.5067 259.376 30.9733 259.829 31.48C260.309 31.9867 260.603 32.3333 260.709 32.52H261.029V20.6H267.109V51H261.029V48.28H260.709C260.603 48.4667 260.309 48.8133 259.829 49.32C259.376 49.8267 258.709 50.3067 257.829 50.76C256.949 51.1867 255.829 51.4 254.469 51.4ZM256.229 46.48C257.323 46.48 258.229 46.1867 258.949 45.6C259.696 44.9867 260.243 44.2133 260.589 43.28C260.963 42.3467 261.149 41.3867 261.149 40.4C261.149 39.4133 260.963 38.4533 260.589 37.52C260.243 36.5867 259.696 35.8267 258.949 35.24C258.229 34.6267 257.323 34.32 256.229 34.32C255.136 34.32 254.216 34.6267 253.469 35.24C252.749 35.8267 252.203 36.5867 251.829 37.52C251.483 38.4533 251.309 39.4133 251.309 40.4C251.309 41.3867 251.483 42.3467 251.829 43.28C252.203 44.2133 252.749 44.9867 253.469 45.6C254.216 46.1867 255.136 46.48 256.229 46.48ZM280.954 29.4C282.314 29.4 283.434 29.6267 284.314 30.08C285.194 30.5067 285.86 30.9733 286.314 31.48C286.794 31.9867 287.087 32.3333 287.194 32.52H287.514V29.8H293.594V51H287.514V48.28H287.194C287.087 48.4667 286.794 48.8133 286.314 49.32C285.86 49.8267 285.194 50.3067 284.314 50.76C283.434 51.1867 282.314 51.4 280.954 51.4C279.38 51.4 278.007 51.0933 276.834 50.48C275.687 49.84 274.727 49 273.954 47.96C273.18 46.8933 272.594 45.7067 272.194 44.4C271.82 43.0933 271.634 41.76 271.634 40.4C271.634 39.04 271.82 37.7067 272.194 36.4C272.594 35.0933 273.18 33.92 273.954 32.88C274.727 31.8133 275.687 30.9733 276.834 30.36C278.007 29.72 279.38 29.4 280.954 29.4ZM282.714 34.32C281.62 34.32 280.7 34.6267 279.954 35.24C279.234 35.8267 278.687 36.5867 278.314 37.52C277.967 38.4533 277.794 39.4133 277.794 40.4C277.794 41.3867 277.967 42.3467 278.314 43.28C278.687 44.2133 279.234 44.9867 279.954 45.6C280.7 46.1867 281.62 46.48 282.714 46.48C283.807 46.48 284.714 46.1867 285.434 45.6C286.18 44.9867 286.727 44.2133 287.074 43.28C287.447 42.3467 287.634 41.3867 287.634 40.4C287.634 39.4133 287.447 38.4533 287.074 37.52C286.727 36.5867 286.18 35.8267 285.434 35.24C284.714 34.6267 283.807 34.32 282.714 34.32ZM307.809 51.4C306.156 51.4 304.836 51.16 303.849 50.68C302.863 50.1733 302.116 49.5467 301.609 48.8C301.103 48.0267 300.769 47.2133 300.609 46.36C300.449 45.5067 300.369 44.72 300.369 44V34.64H296.769V29.8H300.369V24.56H306.449V29.8H310.969V34.64H306.449V43.84C306.449 44.72 306.676 45.4 307.129 45.88C307.609 46.36 308.396 46.6 309.489 46.6C309.969 46.6 310.409 46.56 310.809 46.48C311.209 46.4 311.409 46.36 311.409 46.36V51.04C311.409 51.04 311.049 51.0933 310.329 51.2C309.609 51.3333 308.769 51.4 307.809 51.4ZM324.196 51.4C322.623 51.4 321.249 51.0933 320.076 50.48C318.929 49.84 317.969 49 317.196 47.96C316.423 46.8933 315.836 45.7067 315.436 44.4C315.063 43.0933 314.876 41.76 314.876 40.4C314.876 39.04 315.063 37.7067 315.436 36.4C315.836 35.0933 316.423 33.92 317.196 32.88C317.969 31.8133 318.929 30.9733 320.076 30.36C321.249 29.72 322.623 29.4 324.196 29.4C325.556 29.4 326.676 29.6267 327.556 30.08C328.436 30.5067 329.103 30.9733 329.556 31.48C330.036 31.9867 330.329 32.3333 330.436 32.52H330.756V20.6H336.836V51H330.756V48.28H330.436C330.329 48.4667 330.036 48.8133 329.556 49.32C329.103 49.8267 328.436 50.3067 327.556 50.76C326.676 51.1867 325.556 51.4 324.196 51.4ZM325.956 46.48C327.049 46.48 327.956 46.1867 328.676 45.6C329.423 44.9867 329.969 44.2133 330.316 43.28C330.689 42.3467 330.876 41.3867 330.876 40.4C330.876 39.4133 330.689 38.4533 330.316 37.52C329.969 36.5867 329.423 35.8267 328.676 35.24C327.956 34.6267 327.049 34.32 325.956 34.32C324.863 34.32 323.943 34.6267 323.196 35.24C322.476 35.8267 321.929 36.5867 321.556 37.52C321.209 38.4533 321.036 39.4133 321.036 40.4C321.036 41.3867 321.209 42.3467 321.556 43.28C321.929 44.2133 322.476 44.9867 323.196 45.6C323.943 46.1867 324.863 46.48 325.956 46.48ZM352.2 51.4C350.334 51.4 348.72 51.0933 347.36 50.48C346 49.84 344.88 49 344 47.96C343.12 46.8933 342.454 45.7067 342 44.4C341.574 43.0933 341.36 41.7467 341.36 40.36C341.36 39.0267 341.56 37.72 341.96 36.44C342.387 35.1333 343.027 33.9467 343.88 32.88C344.76 31.8133 345.867 30.9733 347.2 30.36C348.56 29.72 350.16 29.4 352 29.4C353.947 29.4 355.667 29.8267 357.16 30.68C358.68 31.5333 359.867 32.8 360.72 34.48C361.574 36.1333 362 38.1467 362 40.52V42H347.48C347.56 43.28 348 44.3867 348.8 45.32C349.627 46.2533 350.76 46.72 352.2 46.72C353.027 46.72 353.694 46.6 354.2 46.36C354.734 46.0933 355.147 45.8 355.44 45.48C355.734 45.1333 355.934 44.8267 356.04 44.56C356.147 44.2933 356.2 44.16 356.2 44.16H361.8C361.8 44.16 361.734 44.4133 361.6 44.92C361.494 45.4 361.254 46 360.88 46.72C360.507 47.44 359.96 48.16 359.24 48.88C358.547 49.6 357.627 50.2 356.48 50.68C355.334 51.16 353.907 51.4 352.2 51.4ZM347.48 38.32H356.16C356.08 36.8533 355.64 35.76 354.84 35.04C354.04 34.32 353.054 33.96 351.88 33.96C350.707 33.96 349.707 34.3467 348.88 35.12C348.054 35.8667 347.587 36.9333 347.48 38.32ZM371.672 51L363.912 29.8H369.992L374.952 44.16L379.712 29.8H385.832L378.032 51H371.672ZM389.702 46.76V41.72L400.062 37.4L389.702 33.16V28.12L406.702 35.68V39.2L389.702 46.76Z" fill="white"/>
<path d="M29.9906 69.1063C29.9906 68.7434 32.3759 80.3704 36.4845 72.6483C37.7333 70.3203 33.6247 82.6608 33.6247 82.6608C33.6247 82.6608 29.5785 76.2528 29.9906 69.1063Z" fill="white"/>
<path d="M84.7638 26.1149L78.4448 31.9722C77.683 32.6856 76.9712 33.4491 76.1969 34.15L67.9422 41.5217C66.6934 42.5981 65.532 43.7495 64.3331 44.8509C63.5863 45.5909 62.8027 46.2927 61.9854 46.9535C61.5608 47.2664 61.1237 47.5543 60.7365 47.8421C60.3494 48.13 59.7874 48.3678 59.3254 48.6306C58.8633 48.8935 58.701 48.6306 58.9507 48.105C59.3464 47.228 59.823 46.3899 60.3744 45.6018C61.7481 44.0374 63.3591 42.6732 64.8577 41.1838C66.3562 39.6944 67.9297 38.2801 69.5407 36.8784C71.4514 35.1888 73.2122 33.1863 75.0355 31.3214L81.0673 25.1637C82.3161 23.9121 83.565 22.6606 84.7388 21.409C86.5621 19.4565 88.4853 17.5291 90.1337 15.4891C91.4009 13.8911 92.5727 12.2194 93.6429 10.4828C93.8802 10.1073 94.0925 9.71932 94.3423 9.35637C94.7669 8.70555 95.0916 8.30505 95.5162 8.1048C95.9723 8.11323 96.4273 8.15506 96.8774 8.22995C97.1396 8.22995 97.4144 8.22995 97.6391 8.22995C97.8639 8.22995 98.276 8.48027 98.4509 9.00593C98.5373 9.32791 98.5627 9.66329 98.5258 9.99467C98.4969 10.3164 98.3989 10.6281 98.2386 10.9083C96.3048 14.2911 93.8995 17.3802 91.0953 20.0823C89.0722 22.1599 86.9617 24.1624 84.8512 26.19L84.7638 26.1149Z" fill="white"/>
<path d="M63.7962 62.06C65.3822 62.3979 66.9307 62.8359 68.4667 63.3115C69.0287 63.4742 69.6032 63.5994 70.1651 63.7997C72.0989 64.5299 73.9735 65.4086 75.7723 66.428C76.5716 66.891 77.3958 67.2915 78.195 67.6795C78.7275 67.9531 79.2333 68.2757 79.7061 68.6432C80.1406 69.0807 80.5106 69.578 80.8051 70.1201C80.9924 70.458 80.6927 70.6708 80.1557 70.8084C79.5261 70.984 78.8669 71.0266 78.22 70.9336C77.9623 70.8773 77.7196 70.7663 77.5082 70.6082L76.8588 70.1827L75.4726 69.3691L72.6253 67.7421C71.3967 67.1376 70.1016 66.6797 68.7665 66.3779C67.3178 65.9398 65.8442 65.5769 64.3581 65.2515C63.434 65.0763 62.5099 64.901 61.5733 64.7759L59.4503 64.5381C58.7384 64.5381 58.0266 64.4505 57.3148 64.4505C56.2179 64.5264 55.1283 64.6854 54.0554 64.9261C53.8181 64.9261 53.5808 65.0512 53.3435 65.0888C52.4569 65.0888 52.0947 64.8885 51.9074 64.0124C51.9074 63.8247 51.7825 63.6495 51.7451 63.4868C51.6378 62.8374 52.0041 62.2029 52.6192 61.9724C53.6076 61.5623 54.6601 61.3294 55.7288 61.284C56.8096 61.2027 57.8949 61.2027 58.9757 61.284C60.5977 61.4027 62.2114 61.6158 63.8086 61.9223L63.7962 62.06Z" fill="white"/>
<path d="M72.6503 40.2451L56.2158 53.1613C54.2177 54.7383 52.3195 56.4029 50.3089 57.9674C48.4877 59.2431 46.8125 60.7164 45.3136 62.3604C44.925 62.7694 44.5077 63.15 44.0648 63.4993C43.9274 63.6244 43.9025 63.637 43.865 63.6495C43.8217 63.6856 43.7839 63.7277 43.7526 63.7746C43.6277 63.9373 43.4779 64.1126 43.353 64.3003C42.816 65.0512 42.4039 65.9774 41.8794 66.8034C40.85 68.6912 39.9529 70.6483 39.1944 72.6608L38.8947 73.4242L38.545 74.4005L37.6334 76.791C37.0839 78.3304 36.5844 79.8698 36.0474 81.0338C35.6793 81.8378 35.2092 82.5908 34.6487 83.2741C34.4403 83.5717 34.143 83.7952 33.7995 83.9124H33.5997C33.5997 84.0751 33.5997 83.9124 33.5997 84V84V84H33.4998C33.3804 83.9617 33.2636 83.9157 33.1501 83.8623C32.9235 83.75 32.7133 83.6068 32.5257 83.4368C32.3259 83.2741 32.1636 83.1114 31.9887 82.9612C31.8249 82.7731 31.6707 82.5767 31.5267 82.373C31.2334 81.9762 30.9704 81.5578 30.7399 81.1214C30.4584 80.6503 30.2081 80.1611 29.9906 79.6571C29.8075 79.098 29.6077 78.5348 29.3912 77.9674C29.1414 77.204 28.9916 76.2903 28.7418 75.4643L28.4171 74.0876C28.2922 73.662 28.2048 73.0488 28.1424 72.836L27.7802 70.9336C27.6262 70.3097 27.5301 69.6729 27.493 69.0312L27.2183 65.3766C27.1603 64.8029 27.1394 64.2259 27.1558 63.6495C27.1518 63.1589 27.11 62.6693 27.0309 62.1851C27.0309 61.9223 27.0309 61.7972 27.0309 61.6344C27.0343 61.451 27.1004 61.2743 27.2183 61.1338C27.7014 60.6575 28.451 60.5845 29.0166 60.9586C30.155 61.5733 31.1476 62.4271 31.9263 63.4617C32.8317 64.6379 33.4517 66.0091 33.7371 67.4668C33.8495 68.1176 33.9993 68.7183 34.0493 69.4192V72.3103C34.0493 72.5356 34.0493 72.473 34.0493 72.473V72.473C33.9973 72.5971 33.9973 72.737 34.0493 72.861C34.1242 73.0237 34.1742 73.0237 34.3365 72.861L34.4739 72.6733V72.6733C34.4739 72.6733 34.4739 72.6733 34.5363 72.5231L34.6113 72.2853L34.911 71.3341C35.3356 70.0825 35.7852 68.831 36.3097 67.5794C36.6219 66.8159 36.9466 66.0525 37.2962 65.289C37.4835 64.901 37.6584 64.5131 37.8582 64.1251C38.058 63.7371 38.3078 63.3741 38.545 62.9987C39.06 62.2031 39.6318 61.446 40.2559 60.7333C40.4838 60.5095 40.7257 60.3005 40.9802 60.1075L41.4423 59.7446C41.7514 59.4899 42.0768 59.2558 42.4164 59.0437C43.0907 58.6057 43.8026 58.2051 44.4395 57.7921L46.2253 56.0274L49.7844 52.8359L65.4446 38.9685L70.2775 34.6881C71.901 33.2864 73.5245 31.8846 75.1354 30.4578C80.0183 26.1524 84.9137 21.822 89.5468 17.3164C91.3326 15.5516 93.031 13.7369 94.6919 11.8971C96.3529 10.0573 97.9513 8.14235 99.5748 6.32757C100.274 5.48902 101.023 4.73808 101.798 3.97462C102.799 2.92986 103.933 2.02101 105.17 1.27123C105.556 1.04895 105.979 0.896448 106.418 0.820666C106.834 0.779504 107.252 0.779504 107.667 0.820666C108.004 0.820666 108.366 0.820666 108.604 0.820666C109.266 0.883245 109.216 3.06098 107.542 5.68927C106.943 6.69053 106.293 7.61669 105.644 8.5804L104.658 10.0197C104.32 10.4953 103.933 10.9208 103.571 11.3714C101.973 13.1653 100.374 14.9092 98.7756 16.603C97.1521 18.2801 95.4787 19.9321 93.7803 21.6092L88.6851 26.4403C83.49 31.1712 78.1992 35.8062 72.8126 40.3452L72.6503 40.2451Z" fill="white"/>
<path d="M79.2066 23.6743C75.0438 26.1775 70.8811 28.6806 66.7184 31.1837C65.2073 32.1099 63.7837 33.1612 62.2726 34.0749L46.3002 43.7495C43.915 45.1638 41.6046 46.7157 39.3318 48.2552C36.4149 50.2494 33.3741 52.0553 30.2279 53.6619C29.2413 54.1501 29.104 53.737 29.5286 52.7358C30.2105 51.1946 31.1669 49.7907 32.3509 48.5931L34.3365 46.7533L35.3356 45.8146L36.4096 44.9886C37.8415 43.8872 39.2902 42.8108 40.7554 41.7595C42.2291 40.7082 43.6902 39.6444 45.2387 38.6932C46.7872 37.742 48.3483 36.7407 49.9717 35.9022C53.7806 33.7745 57.3897 31.0336 61.1112 28.6055C65.2073 25.9397 69.3534 23.3364 73.4745 20.7206L81.1173 15.9021C84.9511 13.3989 88.8599 11.071 92.6064 8.51782C95.5161 6.54034 98.276 4.4377 101.148 2.4477C101.785 2.00965 102.397 1.54657 103.047 1.19613C105.544 -0.318268 106.793 -0.205627 107.792 0.495253C108.041 0.640203 108.279 0.803349 108.504 0.983365C108.829 1.29626 108.804 1.74682 108.504 2.33506C108.157 3.11262 107.656 3.81107 107.03 4.38764C105.919 5.52656 104.682 6.45273 103.471 7.50404C102.26 8.55536 100.973 9.51907 99.7247 10.5203C97.1599 12.53 94.4786 14.3855 91.6948 16.0773C87.5986 18.7056 83.4026 21.2338 79.2066 23.837V23.6743Z" fill="white"/>
<path d="M70.6272 66.5406C69.0596 65.9863 67.4578 65.5348 65.8317 65.1889C65.2323 65.0387 64.5829 65.1013 64.0085 64.9761C62.947 64.7383 61.873 64.6507 60.774 64.488C59.6759 64.3533 58.5709 64.2822 57.4646 64.2752C56.4872 64.2814 55.5142 64.4075 54.5674 64.6507C53.3874 65.0679 52.147 65.2877 50.8959 65.3015C50.4837 65.3015 50.2714 64.2377 50.3589 63.1739C50.4463 62.11 50.8709 61.0087 51.6077 60.8084C54.3411 60.1232 57.1883 60.0251 59.9623 60.5205C61.6232 60.8084 63.3591 60.6707 65.045 60.9085C66.8946 61.1784 68.7196 61.5969 70.5023 62.1601C71.6013 62.5231 72.6877 62.8735 73.7492 63.2865C75.3727 63.8747 76.9088 64.6758 78.4823 65.3641C79.7377 65.8363 80.9601 66.3924 82.1413 67.0287C82.3786 67.2039 82.6408 67.3541 82.8656 67.5544C83.6773 68.3429 83.7648 68.8059 83.4151 69.5569C83.3543 69.7197 83.2834 69.8785 83.2028 70.0325C82.7797 70.5379 82.0906 70.7316 81.4669 70.5206C80.905 70.3954 80.293 70.3328 79.7311 70.2327C79.1978 70.1212 78.6814 69.9403 78.195 69.6945L75.1979 68.443C73.6846 67.7868 72.1332 67.2226 70.5523 66.7534L70.6272 66.5406Z" fill="white"/>
<path d="M98.5882 28.3427C97.9389 29.807 97.3394 31.2964 96.7025 32.7858C96.0656 34.2751 95.4537 35.752 94.8543 37.2664C94.4172 38.3552 94.13 39.5067 93.7054 40.6081C92.2068 44.4879 90.7831 48.4179 89.6342 52.4104C89.1597 54.2627 88.6851 55.9899 88.3105 57.7796C88.0857 58.9185 87.8859 60.07 87.711 61.2089C87.4524 62.3072 87.2524 63.4185 87.1116 64.5381C87.1116 65.0888 86.8119 65.3015 86.1875 64.7133C85.3875 63.7552 84.8802 62.5863 84.7264 61.3466C84.6674 58.8361 84.8094 56.3249 85.151 53.8372C85.6192 51.4052 86.2832 49.0152 87.1366 46.6907C88.1481 43.8872 88.7226 40.8709 89.6342 37.9297C90.6458 34.7632 91.7072 31.6719 92.981 28.5304C93.7428 26.6405 94.5546 24.7757 95.3538 22.8733C96.6026 20.0197 97.9513 17.2162 99.2376 14.4127C99.7621 13.3238 100.199 12.2099 100.674 11.096C101.106 9.96096 101.623 8.86056 102.222 7.80442C102.497 7.34134 102.709 6.85323 103.034 6.40266C104.208 4.73807 104.982 4.45021 106.169 4.91329C106.447 5.00112 106.718 5.1099 106.98 5.2387C107.805 5.72681 107.917 6.81568 107.43 8.05473C106.693 9.91957 106.181 11.9221 105.194 13.7619L102.547 19.5191C101.298 22.4228 99.912 25.3639 98.7256 28.3677L98.5882 28.3427Z" fill="white"/>
<path d="M58.0266 28.2426L38.545 36.2526C36.1723 37.2288 33.8869 38.3678 31.5142 39.344L19.026 44.5005L17.5024 45.1513L16.7282 45.5017L16.1163 45.7771L14.755 46.3027C13.8184 46.6907 12.7694 47.1288 11.6705 47.6419C11.4207 47.7545 11.1834 47.8672 10.9586 47.9923C10.8392 48.0497 10.7296 48.1257 10.6339 48.2176C10.7089 48.2176 10.8462 48.2176 10.9586 48.2176L12.3948 48.3177C13.3938 48.3803 14.4179 48.4429 15.342 48.543C15.6417 48.543 15.9414 48.6056 16.2286 48.6557C16.3161 48.6557 16.3286 48.6557 16.4909 48.6557L16.9904 48.7683L17.977 48.9936C19.3099 49.3102 20.6166 49.7287 21.8858 50.2452C23.2211 50.7787 24.4806 51.4856 25.6323 52.3478C26.8445 53.2987 27.7697 54.5682 28.3047 56.0149C28.6419 56.916 28.492 57.3916 28.2173 57.4792C27.9426 57.5668 27.4181 57.3165 26.6688 57.0537C25.723 56.7626 24.7354 56.6314 23.7465 56.6657C22.6328 56.5592 21.5325 56.3412 20.4621 56.0149C19.39 55.6804 18.297 55.417 17.1902 55.2264C16.6158 55.1263 16.0413 55.0262 15.4544 54.9511L15.0048 54.876L14.0307 54.7383C13.3564 54.7383 12.6445 54.6632 11.9452 54.6257L9.88465 54.3753L7.74917 54.1626L5.53876 53.9874L4.42731 53.9123C4.09051 53.9003 3.75579 53.8541 3.42826 53.7746C2.55515 53.6012 1.72912 53.2428 1.00555 52.7233C0.587676 52.4778 0.276022 52.0852 0.131376 51.6219C0.0476802 51.3249 0.009778 51.0168 0.0189821 50.7082C0.0391115 50.5336 0.0391115 50.3572 0.0189821 50.1826C-0.00632736 50.0125 -0.00632736 49.8395 0.0189821 49.6694C0.146428 48.7193 0.585788 47.8386 1.2678 47.1663C1.93748 46.4505 2.73345 45.8649 3.61558 45.4391L4.0152 45.2264L4.68956 45.0511C5.11416 44.9385 5.61369 44.8259 5.93838 44.7132L7.76166 43.9372L11.2708 42.4854L12.9692 41.8596L13.756 41.5342L14.1181 41.3966L14.3429 41.309C20.2124 38.981 26.0069 35.9272 31.8264 33.2739L51.2955 24.6005L63.1967 19.2187C69.1661 16.4653 75.2728 13.9371 81.1298 11.0335C83.4026 9.91958 85.613 8.71807 87.7984 7.49153L94.4047 4.01217C95.3788 3.49902 96.3029 2.96085 97.2895 2.46022C98.276 1.95959 98.9504 1.63419 99.5873 1.34632C100.139 1.13395 100.707 0.966527 101.286 0.845696C102.009 0.677411 102.761 0.677411 103.484 0.845696C103.765 0.897643 104.048 0.935238 104.333 0.958338C104.757 1.02092 104.732 1.58412 104.258 2.37261C103.564 3.43701 102.723 4.39771 101.76 5.22619C98.0138 8.04222 94.1674 10.6455 90.1462 13.1486C86.0251 15.439 81.7791 17.5792 77.4957 19.6818C74.3112 21.2213 71.2016 22.7857 67.8798 24.225L58.1015 28.4053L58.0266 28.2426Z" fill="white"/>
</svg>
